<svg data-v-423bf9ae="" xmlns="http://www.w3.org/2000/svg" viewBox="0 0 260.0960454995105 60" class="font"><!----><!----><defs data-v-423bf9ae=""><linearGradient data-v-423bf9ae="" gradientTransform="rotate(25)" id="1bf7dcc5-aa03-4a05-abbf-a08f680e59c8" x1="0%" y1="0%" x2="100%" y2="0%"><stop data-v-423bf9ae="" offset="0%" style="stop-color: rgb(54, 22, 172); stop-opacity: 1;"></stop><stop data-v-423bf9ae="" offset="100%" style="stop-color: rgb(224, 155, 237); stop-opacity: 1;"></stop></linearGradient></defs><g data-v-423bf9ae="" id="fe730889-9f34-4c61-a697-ee36b7efee40" fill="url(#1bf7dcc5-aa03-4a05-abbf-a08f680e59c8)" transform="matrix(6.200143999265221,0,0,6.200143999265221,-1.4260305347582403,-19.158443710311168)"><path d="M4.02 3.55L4.02 3.55L4.02 3.55Q3.45 3.63 2.54 4.43L2.54 4.43L2.54 4.43Q1.64 5.23 1.24 5.79L1.24 5.79L1.24 5.79Q0.83 6.35 0.47 7.15L0.47 7.15L0.47 7.15Q0.11 7.94 0.29 9.11L0.29 9.11L0.29 9.11Q0.48 10.28 1.78 11.57L1.78 11.57L1.78 11.57Q3.08 12.86 4.61 12.76L4.61 12.76L6.17 10.92L5.96 10.76L5.43 11.32L5.43 11.32Q4.27 11.49 3.32 10.84L3.32 10.84L3.32 10.84Q2.37 10.19 1.77 9.01L1.77 9.01L1.77 9.01Q1.18 7.83 1.61 6.24L1.61 6.24L1.61 6.24Q2.01 4.81 3.36 4.87L3.36 4.87L3.36 4.87Q5.53 5.04 5.14 6.45L5.14 6.45L5.26 6.50L5.26 6.50Q6.57 5.30 6.60 4.96L6.60 4.96L6.60 4.96Q6.64 4.62 6.13 4.12L6.13 4.12L6.13 4.12Q5.62 3.61 5.11 3.54L5.11 3.54L5.11 3.54Q4.60 3.48 4.02 3.55ZM9.48 6.52L9.48 6.52Q8.65 7.02 7.90 8.07L7.90 8.07L7.90 8.07Q7.14 9.11 7.08 9.85L7.08 9.85L7.08 9.85Q7.03 10.59 7.81 11.61L7.81 11.61L7.81 11.61Q8.59 12.63 9.01 12.68L9.01 12.68L9.01 12.68Q9.78 12.04 10.26 11.63L10.26 11.63L10.26 11.63Q10.45 12.37 11.33 12.73L11.33 12.73L12.68 11.09L12.46 10.94L12.16 11.26L12.16 11.26Q11.81 11.42 11.59 11.14L11.59 11.14L11.59 11.14Q11.38 10.87 11.40 10.47L11.40 10.47L11.40 7.18L11.40 7.18Q11.42 6.68 11.76 6.51L11.76 6.51L9.48 6.52ZM8.69 7.60L10.35 7.60L10.11 8.07L10.11 8.32L10.11 11.25L10.11 11.25Q9.51 11.72 8.63 10.45L8.63 10.45L8.63 10.45Q7.76 9.17 8.69 7.60L8.69 7.60ZM13.94 6.54L12.60 8.20L12.78 8.33L12.78 8.33Q13.22 7.75 13.48 7.88L13.48 7.88L13.48 7.88Q13.74 8.00 13.70 8.77L13.70 8.77L13.70 11.55L13.70 11.55Q13.84 12.53 14.55 12.68L14.55 12.68L15.89 11.37L15.79 11.23L15.79 11.23Q15.09 11.67 15.08 11.01L15.08 11.01L15.08 8.33L15.08 8.33Q15.13 7.54 15.48 7.51L15.48 7.51L15.48 7.51Q15.84 7.47 16.23 8.21L16.23 8.21L17.38 7.31L17.38 7.31Q16.94 6.63 16.43 6.51L16.43 6.51L16.43 6.51Q15.93 6.39 15.58 6.71L15.58 6.71L15.58 6.71Q15.22 7.03 14.98 7.55L14.98 7.55L14.98 7.55Q14.87 6.67 13.94 6.54L13.94 6.54ZM19.88 6.54L19.88 6.54Q19.24 6.79 18.47 7.53L18.47 7.53L18.47 7.53Q16.88 9.04 17.34 10.32L17.34 10.32L17.34 10.32Q17.80 11.59 18.45 12.20L18.45 12.20L18.45 12.20Q19.10 12.80 19.61 12.68L19.61 12.68L19.61 12.68Q20.64 11.89 21.61 10.62L21.61 10.62L21.44 10.47L21.44 10.47Q20.86 11.13 20.28 11.32L20.28 11.32L20.28 11.32Q19.61 11.20 19.04 10.30L19.04 10.30L19.04 10.30Q18.47 9.41 18.49 8.60L18.49 8.60L18.49 8.60Q18.51 7.79 18.90 7.68L18.90 7.68L18.90 7.68Q19.28 7.57 19.73 7.83L19.73 7.83L19.73 7.83Q20.17 8.09 20.27 8.85L20.27 8.85L21.40 7.87L21.40 7.87Q21.51 7.21 21.01 6.84L21.01 6.84L21.01 6.84Q20.50 6.47 19.88 6.54L19.88 6.54ZM23.97 3.09L23.97 3.09Q22.20 4.27 22.26 5.39L22.26 5.39L22.26 11.24L22.26 11.24Q22.35 12.32 23.38 12.71L23.38 12.71L24.73 11.40L24.62 11.27L24.62 11.27Q23.93 11.70 23.58 11.05L23.58 11.05L23.58 7.78L23.58 5.11L23.58 5.11Q23.54 3.76 24.09 3.24L24.09 3.24L23.97 3.09ZM26.54 3.80L25.29 4.94L25.29 4.94Q26.04 5.07 26.08 6.04L26.08 6.04L27.36 5.02L27.36 5.02Q27.40 4.12 26.54 3.80L26.54 3.80ZM26.64 6.44L24.96 7.82L25.09 8.07L25.50 7.77L25.50 7.77Q25.87 7.77 25.79 8.80L25.79 8.80L25.79 11.58L25.79 11.58Q25.87 12.58 26.63 12.71L26.63 12.71L27.98 11.40L27.82 11.25L27.44 11.59L27.44 11.59Q27.06 11.57 27.11 10.53L27.11 10.53L27.10 7.64L27.10 7.64Q27.09 6.57 26.64 6.44L26.64 6.44ZM29.37 6.51L28.09 7.80L28.25 8.00L28.66 7.64L28.66 7.64Q29.20 7.67 29.15 8.76L29.15 8.76L29.15 11.57L29.15 11.57Q29.17 12.58 29.96 12.71L29.96 12.71L31.25 11.44L31.12 11.31L30.72 11.64L30.72 11.64Q30.45 11.53 30.47 10.62L30.47 10.62L30.47 8.05L30.98 7.63L30.98 7.63Q32.16 7.59 32.17 9.03L32.17 9.03L32.16 11.54L32.16 11.54Q32.16 12.54 32.93 12.69L32.93 12.69L34.23 11.43L34.09 11.25L33.69 11.62L33.69 11.62Q33.46 11.59 33.46 10.81L33.46 10.81L33.47 8.10L33.47 8.10Q33.45 7.18 32.88 6.79L32.88 6.79L32.88 6.79Q32.31 6.41 31.71 6.51L31.71 6.51L30.41 7.73L30.41 7.73Q30.27 6.64 29.37 6.51L29.37 6.51ZM36.10 3.80L34.86 4.94L34.86 4.94Q35.60 5.07 35.64 6.04L35.64 6.04L36.92 5.02L36.92 5.02Q36.96 4.12 36.10 3.80L36.10 3.80ZM36.20 6.44L34.52 7.82L34.66 8.07L35.07 7.77L35.07 7.77Q35.43 7.77 35.35 8.80L35.35 8.80L35.35 11.58L35.35 11.58Q35.43 12.58 36.20 12.71L36.20 12.71L37.54 11.40L37.39 11.25L37.00 11.59L37.00 11.59Q36.63 11.57 36.67 10.53L36.67 10.53L36.67 7.64L36.67 7.64Q36.65 6.57 36.20 6.44L36.20 6.44ZM40.45 6.54L40.45 6.54Q39.81 6.79 39.04 7.53L39.04 7.53L39.04 7.53Q37.45 9.04 37.91 10.32L37.91 10.32L37.91 10.32Q38.37 11.59 39.02 12.20L39.02 12.20L39.02 12.20Q39.67 12.80 40.18 12.68L40.18 12.68L40.18 12.68Q41.21 11.89 42.18 10.62L42.18 10.62L42.01 10.47L42.01 10.47Q41.43 11.13 40.85 11.32L40.85 11.32L40.85 11.32Q40.17 11.20 39.61 10.30L39.61 10.30L39.61 10.30Q39.04 9.41 39.06 8.60L39.06 8.60L39.06 8.60Q39.08 7.79 39.47 7.68L39.47 7.68L39.47 7.68Q39.85 7.57 40.30 7.83L40.30 7.83L40.30 7.83Q40.74 8.09 40.84 8.85L40.84 8.85L41.97 7.87L41.97 7.87Q42.08 7.21 41.58 6.84L41.58 6.84L41.58 6.84Q41.07 6.47 40.45 6.54L40.45 6.54Z"></path></g><!----><!----></svg>