<svg xmlns="http://www.w3.org/2000/svg" xmlns:xlink="http://www.w3.org/1999/xlink" version="1.1" width="256" height="256" viewBox="0 0 256 256" xml:space="preserve">

<defs>
</defs>
<g style="stroke: none; stroke-width: 0; stroke-dasharray: none; stroke-linecap: butt; stroke-linejoin: miter; stroke-miterlimit: 10; fill: none; fill-rule: nonzero; opacity: 1;" transform="translate(1.4065934065934016 1.4065934065934016) scale(2.81 2.81)" >
	<path d="M 34.755 90 c -0.916 0 -1.814 -0.18 -2.67 -0.534 l -9.397 -3.893 c -3.555 -1.474 -5.248 -5.563 -3.775 -9.116 c 0.949 -2.291 -0.307 -3.896 -0.891 -4.48 c -0.584 -0.584 -2.19 -1.841 -4.481 -0.892 c -1.722 0.713 -3.618 0.713 -5.339 0 c -1.722 -0.714 -3.063 -2.055 -3.775 -3.775 l -3.892 -9.396 c -1.473 -3.552 0.22 -7.64 3.773 -9.114 C 6.6 47.849 6.848 45.826 6.848 45 c 0 -0.826 -0.247 -2.85 -2.537 -3.799 c -1.722 -0.712 -3.062 -2.054 -3.775 -3.776 c -0.713 -1.721 -0.713 -3.618 0 -5.34 l 3.892 -9.395 c 0.712 -1.721 2.053 -3.062 3.776 -3.775 c 1.721 -0.713 3.619 -0.713 5.34 0 c 2.294 0.952 3.896 -0.307 4.479 -0.892 c 0.584 -0.585 1.841 -2.191 0.892 -4.481 c -0.713 -1.721 -0.713 -3.618 0 -5.339 c 0.713 -1.722 2.054 -3.063 3.776 -3.776 l 9.395 -3.892 c 1.723 -0.714 3.62 -0.713 5.341 0 c 1.722 0.713 3.063 2.054 3.776 3.777 c 0.948 2.29 2.972 2.537 3.798 2.537 c 0.826 0 2.849 -0.247 3.798 -2.536 c 1.474 -3.553 5.56 -5.247 9.115 -3.776 L 67.31 4.43 c 1.72 0.712 3.061 2.053 3.774 3.775 c 0.713 1.721 0.714 3.617 0.001 5.338 c -0.949 2.29 0.308 3.897 0.892 4.482 c 0.583 0.583 2.189 1.839 4.479 0.891 c 3.549 -1.472 7.642 0.219 9.116 3.773 l 3.893 9.398 c 0.713 1.723 0.713 3.619 0 5.339 c -0.714 1.722 -2.055 3.063 -3.776 3.776 c -2.357 0.977 -2.538 3.154 -2.537 3.798 c 0 0.827 0.247 2.85 2.537 3.799 l 0.003 0.001 c 3.551 1.473 5.244 5.56 3.774 9.112 l -3.893 9.397 c -1.474 3.55 -5.564 5.246 -9.114 3.776 c -2.287 -0.944 -3.897 0.307 -4.484 0.892 c -0.583 0.583 -1.84 2.189 -0.891 4.479 c 1.472 3.553 -0.221 7.642 -3.772 9.115 l -9.399 3.893 c -3.556 1.469 -7.642 -0.224 -9.114 -3.772 c -0.95 -2.293 -2.974 -2.54 -3.799 -2.54 c -0.826 0 -2.85 0.247 -3.799 2.538 c -0.713 1.722 -2.054 3.062 -3.776 3.774 C 36.572 89.819 35.673 90 34.755 90 z M 15.171 68.738 c 2.221 0 3.754 1.314 4.265 1.824 c 0.677 0.678 2.775 3.159 1.325 6.66 c -1.05 2.534 0.158 5.452 2.693 6.503 l 9.397 3.893 c 1.225 0.507 2.59 0.506 3.808 0 c 1.23 -0.509 2.187 -1.465 2.695 -2.693 c 1.451 -3.5 4.688 -3.772 5.646 -3.772 s 4.196 0.272 5.647 3.774 c 1.05 2.532 3.967 3.735 6.502 2.69 l 9.398 -3.893 c 2.533 -1.051 3.74 -3.968 2.69 -6.502 c -1.45 -3.5 0.647 -5.982 1.325 -6.66 c 0.679 -0.679 3.162 -2.773 6.662 -1.324 c 2.534 1.047 5.451 -0.163 6.502 -2.695 l 3.893 -9.395 c 1.048 -2.533 -0.16 -5.449 -2.692 -6.5 l 0.001 -0.003 c -3.507 -1.486 -3.775 -4.691 -3.775 -5.644 c -0.001 -0.957 0.268 -4.195 3.771 -5.646 c 1.229 -0.509 2.186 -1.466 2.694 -2.694 c 0.508 -1.227 0.508 -2.58 0 -3.809 l -3.893 -9.397 c -1.052 -2.535 -3.97 -3.741 -6.503 -2.691 c -3.497 1.451 -5.983 -0.647 -6.66 -1.325 c -0.678 -0.679 -2.774 -3.164 -1.324 -6.661 c 0.508 -1.228 0.508 -2.58 -0.001 -3.808 c -0.509 -1.229 -1.465 -2.186 -2.692 -2.693 l -9.397 -3.893 c -2.534 -1.05 -5.451 0.16 -6.502 2.695 C 49.194 8.577 45.957 8.848 45 8.848 c -0.958 0 -4.197 -0.272 -5.646 -3.771 c -0.508 -1.229 -1.465 -2.186 -2.693 -2.694 c -1.228 -0.509 -2.582 -0.509 -3.81 0 l -9.395 3.892 c -1.229 0.509 -2.186 1.465 -2.694 2.693 c -0.508 1.229 -0.508 2.581 0 3.809 c 1.451 3.5 -0.647 5.983 -1.325 6.66 c -0.676 0.678 -3.155 2.78 -6.659 1.326 c -1.228 -0.508 -2.581 -0.508 -3.81 0 c -1.229 0.509 -2.185 1.465 -2.692 2.693 l -3.892 9.396 c -0.509 1.229 -0.509 2.581 0 3.809 c 0.509 1.229 1.465 2.186 2.693 2.694 c 3.5 1.45 3.772 4.688 3.772 5.646 c 0 0.958 -0.272 4.195 -3.774 5.646 c -2.535 1.052 -3.742 3.968 -2.691 6.501 l 3.892 9.396 c 0.508 1.228 1.465 2.184 2.693 2.693 c 1.228 0.508 2.581 0.508 3.809 0 C 13.64 68.88 14.442 68.738 15.171 68.738 z" style="stroke: none; stroke-width: 1; stroke-dasharray: none; stroke-linecap: butt; stroke-linejoin: miter; stroke-miterlimit: 10; fill: rgb(0,0,0); fill-rule: nonzero; opacity: 1;" transform=" matrix(1 0 0 1 0 0) " stroke-linecap="round" />
	<path d="M 45 73.5 c -15.715 0 -28.5 -12.785 -28.5 -28.5 S 29.285 16.5 45 16.5 S 73.5 29.285 73.5 45 S 60.715 73.5 45 73.5 z M 45 18.5 c -14.612 0 -26.5 11.888 -26.5 26.5 S 30.388 71.5 45 71.5 S 71.5 59.612 71.5 45 S 59.612 18.5 45 18.5 z" style="stroke: none; stroke-width: 1; stroke-dasharray: none; stroke-linecap: butt; stroke-linejoin: miter; stroke-miterlimit: 10; fill: rgb(0,0,0); fill-rule: nonzero; opacity: 1;" transform=" matrix(1 0 0 1 0 0) " stroke-linecap="round" />
	<path d="M 30.33 69.256 c -0.184 0 -0.369 -0.051 -0.534 -0.154 c -3.585 -2.266 -6.673 -5.36 -8.932 -8.951 c -0.249 -0.395 -0.19 -0.909 0.14 -1.239 L 31.84 48.074 c -1.285 -4.861 0.091 -10.019 3.663 -13.591 c 3.843 -3.843 9.638 -5.133 14.77 -3.288 c 0.321 0.116 0.562 0.389 0.637 0.723 c 0.075 0.334 -0.026 0.683 -0.269 0.925 l -8.787 8.787 l 0.727 5.748 l 5.748 0.726 l 8.786 -8.786 c 0.241 -0.242 0.585 -0.344 0.926 -0.269 c 0.334 0.075 0.606 0.315 0.723 0.638 c 1.844 5.129 0.554 10.926 -3.289 14.769 c -3.57 3.572 -8.728 4.946 -13.592 3.664 L 31.038 68.963 C 30.845 69.156 30.589 69.256 30.33 69.256 z M 22.991 59.752 c 1.907 2.836 4.376 5.31 7.206 7.223 l 10.687 -10.687 c 0.263 -0.263 0.648 -0.358 1.003 -0.248 c 4.319 1.336 8.983 0.19 12.172 -2.999 c 2.91 -2.91 4.114 -7.13 3.268 -11.108 l -7.932 7.932 c -0.219 0.219 -0.526 0.318 -0.832 0.285 l -7.003 -0.885 c -0.453 -0.058 -0.81 -0.414 -0.867 -0.867 l -0.885 -7.002 c -0.039 -0.307 0.066 -0.614 0.285 -0.833 l 7.932 -7.932 c -3.983 -0.849 -8.198 0.356 -11.109 3.267 c -3.189 3.189 -4.338 7.853 -2.999 12.172 c 0.11 0.354 0.015 0.74 -0.248 1.003 L 22.991 59.752 z" style="stroke: none; stroke-width: 1; stroke-dasharray: none; stroke-linecap: butt; stroke-linejoin: miter; stroke-miterlimit: 10; fill: rgb(0,0,0); fill-rule: nonzero; opacity: 1;" transform=" matrix(1 0 0 1 0 0) " stroke-linecap="round" />
</g>
</svg>